# file generated by UVMapper
# NumVerts/NumTVerts/NumVNormals/NumFacets   8/6/8/4
# NumGroups/NumMaterials/NumRegions   2/0/0
# x/y/color/ppu   877/1024/0/50.00000000

v -7.50000000  0.00000000  0.00000000
v  7.50000000  0.00000000  0.00000000
v  7.50000000  20.00000000  0.00000000
v -7.50000000  20.00000000  0.00000000
v  0.00000000 -0.00000000  7.50000000
v  0.00000000  20.00000000  7.50000000
v  0.00000000  20.00000000 -7.50000000
v  0.00000000  0.00000000 -7.50000000

vt  1.00000000  0.42857143
vt  1.00000000  1.00000000
vt  0.50000000  1.00000000
vt  0.50000000  0.42857143
vt  0.00000000  1.00000000
vt  0.00000000  0.42857143

vn  0.00000000  0.00000000  0.10000000
vn  0.00000000  0.00000000  0.10000000
vn  0.00000000  0.00000000  0.10000000
vn  0.00000000  0.00000000  0.10000000
vn -0.10000000  0.00000000  0.00000000
vn -0.10000000  0.00000000  0.00000000
vn -0.10000000  0.00000000  0.00000000
vn -0.10000000  0.00000000  0.00000000

g Srf1
f 1/4/1 2/1/2 4/3/3
f 4/3/3 2/1/2 3/2/4
g Srf2
f 6/3/5 7/5/6 5/4/7
f 5/4/7 7/5/6 8/6/8
