# file generated by UVMapper
# NumVerts/NumTVerts/NumVNormals/NumFacets   20/20/20/18
# NumGroups/NumMaterials/NumRegions   1/0/0
# x/y/color/ppu   1024/640/0/50.00000000

v -64.02693939 -39.99285126  0.00000000
v -38.42693710 -39.99285126  0.00000000
v -12.82693863 -39.99285126  0.00000000
v  12.77306080 -39.99285126  0.00000000
v  38.37306213 -39.99285126  0.00000000
v  63.97306061 -39.99285126  0.00000000
v  63.97306061 -23.99284935  0.00000000
v  63.97306061 -7.99284983  0.00000000
v  63.97306061  8.00714970  0.00000000
v  63.97306061  24.00715065  0.00000000
v  63.97306061  40.00714874  0.00000000
v  38.37306213  40.00714874  0.00000000
v  12.77306080  40.00714874  0.00000000
v -12.82693863  40.00714874  0.00000000
v -38.42693710  40.00714874  0.00000000
v -64.02693939  40.00714874  0.00000000
v -64.02693939  24.00715065  0.00000000
v -64.02693939  8.00714970  0.00000000
v -64.02693939 -7.99284983  0.00000000
v -64.02693939 -23.99284935  0.00000000

vt  0.00000000  0.00000000
vt  0.20000002  0.00000000
vt  0.00000000  0.20000002
vt  0.40000001  0.00000000
vt  0.00000000  0.40000001
vt  0.60000002  0.00000000
vt  1.00000000  0.40000001
vt  0.80000001  0.00000000
vt  1.00000000  0.20000002
vt  1.00000000  0.00000000
vt  0.00000000  0.60000002
vt  1.00000000  0.60000002
vt  0.60000002  1.00000000
vt  1.00000000  0.80000001
vt  0.80000001  1.00000000
vt  1.00000000  1.00000000
vt  0.00000000  0.80000001
vt  0.40000001  1.00000000
vt  0.20000002  1.00000000
vt  0.00000000  1.00000000

vn  0.00000000  0.00000000  0.10000000
vn  0.00000000  0.00000000  0.10000000
vn  0.00000000  0.00000000  0.10000000
vn  0.00000000  0.00000000  0.10000000
vn  0.00000000  0.00000000  0.10000000
vn  0.00000000  0.00000000  0.10000000
vn  0.00000000  0.00000000  0.10000000
vn  0.00000000  0.00000000  0.10000000
vn  0.00000000  0.00000000  0.10000000
vn  0.00000000  0.00000000  0.10000000
vn  0.00000000  0.00000000  0.10000000
vn  0.00000000  0.00000000  0.10000000
vn  0.00000000 -0.00000000  0.10000000
vn  0.00000000  0.00000000  0.10000000
vn  0.00000000  0.00000000  0.10000000
vn  0.00000000 -0.00000000  0.10000000
vn  0.00000000 -0.00000000  0.10000000
vn  0.00000000  0.00000000  0.10000000
vn  0.00000000 -0.00000000  0.10000000
vn  0.00000000  0.00000000  0.10000000

g Srf1
f 1/1/1 2/2/2 20/3/3
f 20/3/3 2/2/2 3/4/4
f 20/3/3 3/4/4 19/5/5
f 19/5/5 3/4/4 4/6/6
f 19/5/5 4/6/6 8/7/7
f 8/7/7 4/6/6 5/8/8
f 8/7/7 5/8/8 7/9/9
f 7/9/9 5/8/8 6/10/10
f 19/5/5 8/7/7 18/11/11
f 18/11/11 8/7/7 9/12/12
f 18/11/11 9/12/12 14/18/13
f 14/18/13 9/12/12 13/13/14
f 13/13/14 9/12/12 10/14/15
f 13/13/14 10/14/15 12/15/16
f 12/15/16 10/14/15 11/16/17
f 18/11/11 14/18/13 17/17/18
f 17/17/18 14/18/13 15/19/19
f 17/17/18 15/19/19 16/20/20
