# file generated by UVMapper
# NumVerts/NumTVerts/NumVNormals/NumFacets   4/4/4/2
# NumGroups/NumMaterials/NumRegions   1/0/0
# x/y/color/ppu   1024/1024/0/50.00000000

v  499.00000000  0.00000000 -499.00000000
v -499.00000000  0.00000000 -499.00000000
v -499.00000000  0.00000000  499.00000000
v  499.00000000  0.00000000  499.00000000

vt  0.00000000  0.00000000
vt  1.00000000  0.00000000
vt  0.00000000  1.00000000
vt  1.00000000  1.00000000

vn  0.00000000  0.10000000  0.00000000
vn  0.00000000  0.10000000  0.00000000
vn  0.00000000  0.10000000  0.00000000
vn  0.00000000  0.10000000  0.00000000

g Srf1
f 2/1/1 3/3/2 1/2/3
f 1/2/3 3/3/2 4/4/4
