# WaveFront *.obj file (generated by Autodesk ATF)

mtllib runko.mtl

g Solid1

v 1.000000 0.000000 0.000000
v 0.866025 0.000000 -0.500000
v 0.500000 0.000000 -0.866025
v -0.000000 0.000000 -1.000000
v -0.500000 0.000000 -0.866025
v -0.866025 0.000000 -0.500000
v -1.000000 0.000000 0.000000
v -0.866025 0.000000 0.500000
v -0.500000 0.000000 0.866025
v 0.000000 0.000000 1.000000
v 0.500000 0.000000 0.866025
v 0.866025 0.000000 0.500000
v 0.000000 50.412231 0.000000
v -0.800000 10.082446 -0.000000
v -0.600000 20.164893 -0.000000
v -0.400000 30.247339 -0.000000
v -0.200000 40.329785 -0.000000
v 0.692820 10.082446 -0.400000
v 0.519615 20.164893 -0.300000
v 0.346410 30.247339 -0.200000
v 0.173205 40.329785 -0.100000
v 0.200000 40.329785 0.000000
v 0.400000 30.247339 0.000000
v 0.600000 20.164893 0.000000
v 0.800000 10.082446 0.000000
v 0.400000 10.082446 -0.692820
v 0.300000 20.164893 -0.519615
v 0.200000 30.247339 -0.346410
v 0.100000 40.329785 -0.173205
v -0.000000 10.082446 -0.800000
v -0.000000 20.164893 -0.600000
v -0.000000 30.247339 -0.400000
v 0.000000 40.329785 -0.200000
v -0.400000 10.082446 -0.692820
v -0.300000 20.164893 -0.519615
v -0.200000 30.247339 -0.346410
v -0.100000 40.329785 -0.173205
v -0.692820 10.082446 -0.400000
v -0.519615 20.164893 -0.300000
v -0.346410 30.247339 -0.200000
v -0.173205 40.329785 -0.100000
v -0.692820 10.082446 0.400000
v -0.519615 20.164893 0.300000
v -0.346410 30.247339 0.200000
v -0.173205 40.329785 0.100000
v -0.400000 10.082446 0.692820
v -0.300000 20.164893 0.519615
v -0.200000 30.247339 0.346410
v -0.100000 40.329785 0.173205
v 0.000000 10.082446 0.800000
v 0.000000 20.164893 0.600000
v 0.000000 30.247339 0.400000
v 0.000000 40.329785 0.200000
v 0.400000 10.082446 0.692820
v 0.300000 20.164893 0.519615
v 0.200000 30.247339 0.346410
v 0.100000 40.329785 0.173205
v 0.692820 10.082446 0.400000
v 0.519615 20.164893 0.300000
v 0.346410 30.247339 0.200000
v 0.173205 40.329785 0.100000
vt -2.521107 -0.026180 0.000000
vt -1.512664 -0.026180 0.000000
vt -2.521107 0.000000 0.000000
vt -1.512664 0.000000 0.000000
vt -2.521107 0.026180 0.000000
vt -1.512664 0.026180 0.000000
vt -2.521107 0.052360 0.000000
vt -1.512664 0.052360 0.000000
vt -2.521107 0.078540 0.000000
vt -1.512664 0.078540 0.000000
vt -2.521107 0.104720 0.000000
vt -1.512664 0.104720 0.000000
vt -2.521107 0.130900 0.000000
vt -1.512664 0.130900 0.000000
vt -2.521107 0.157080 0.000000
vt -1.512664 0.157080 0.000000
vt -2.521107 -0.157080 0.000000
vt -1.512664 -0.157080 0.000000
vt -2.521107 -0.130900 0.000000
vt -1.512664 -0.130900 0.000000
vt -2.521107 -0.104720 0.000000
vt -1.512664 -0.104720 0.000000
vt -2.521107 -0.078540 0.000000
vt -1.512664 -0.078540 0.000000
vt -2.521107 -0.052360 0.000000
vt -1.512664 -0.052360 0.000000
vt 1.512664 -0.157080 0.000000
vt 2.521107 -0.157080 0.000000
vt 1.512664 -0.130900 0.000000
vt 2.521107 -0.130900 0.000000
vt 1.512664 -0.104720 0.000000
vt 2.521107 -0.104720 0.000000
vt 1.512664 -0.078540 0.000000
vt 2.521107 -0.078540 0.000000
vt 1.512664 -0.052360 0.000000
vt 1.512664 -0.026180 0.000000
vt 2.521107 -0.026180 0.000000
vt 1.512664 0.000000 0.000000
vt 2.521107 0.000000 0.000000
vt 1.512664 0.026180 0.000000
vt 2.521107 0.026180 0.000000
vt 1.512664 0.052360 0.000000
vt 1.512664 0.078540 0.000000
vt 2.521107 0.078540 0.000000
vt 1.512664 0.104720 0.000000
vt 2.521107 0.104720 0.000000
vt 1.512664 0.130900 0.000000
vt 2.521107 0.130900 0.000000
vt 1.512664 0.157080 0.000000
vt -0.504221 -0.157080 0.000000
vt -0.504221 -0.130900 0.000000
vt -0.504221 -0.104720 0.000000
vt -0.504221 -0.078540 0.000000
vt -0.504221 -0.052360 0.000000
vt -0.504221 -0.026180 0.000000
vt -0.504221 0.000000 0.000000
vt -0.504221 0.026180 0.000000
vt -0.504221 0.052360 0.000000
vt -0.504221 0.078540 0.000000
vt -0.504221 0.104720 0.000000
vt -0.504221 0.130900 0.000000
vt -0.504221 0.157080 0.000000
vt 0.504221 -0.157080 0.000000
vt 0.504221 -0.130900 0.000000
vt 0.504221 -0.104720 0.000000
vt 0.504221 -0.078540 0.000000
vt 0.504221 -0.052360 0.000000
vt 0.504221 -0.026180 0.000000
vt 0.504221 0.000000 0.000000
vt 0.504221 0.026180 0.000000
vt 0.504221 0.052360 0.000000
vt 0.504221 0.078540 0.000000
vt 0.504221 0.104720 0.000000
vt 0.504221 0.130900 0.000000
vt 0.504221 0.157080 0.000000
vt 2.521107 -0.052360 0.000000
vt 2.521107 0.052360 0.000000
vt 0.000000 0.100000 0.000000
vt -0.050000 0.086603 0.000000
vt 0.050000 0.086603 0.000000
vt 0.086603 0.050000 0.000000
vt -0.086603 0.050000 0.000000
vt 0.100000 -0.000000 0.000000
vt -0.100000 0.000000 0.000000
vt 0.086603 -0.050000 0.000000
vt -0.086603 -0.050000 0.000000
vt 0.050000 -0.086603 0.000000
vt -0.050000 -0.086603 0.000000
vt -0.000000 -0.100000 0.000000
vn 0.086586 0.001983 -0.049990
vn 0.086586 0.001983 -0.049990
vn 0.099980 0.001983 0.000000
vn 0.099980 0.001983 0.000000
vn 0.086586 0.001983 0.049990
vn 0.086586 0.001983 0.049990
vn 0.049990 0.001983 0.086586
vn 0.049990 0.001983 0.086586
vn 0.000000 0.001983 0.099980
vn 0.000000 0.001983 0.099980
vn -0.049990 0.001983 0.086586
vn -0.049990 0.001983 0.086586
vn -0.086586 0.001983 0.049990
vn -0.086586 0.001983 0.049990
vn -0.099980 0.001983 0.000000
vn -0.099980 0.001983 0.000000
vn -0.086586 0.001983 -0.049990
vn -0.086586 0.001983 -0.049990
vn -0.049990 0.001983 -0.086586
vn -0.049990 0.001983 -0.086586
vn -0.000000 0.001983 -0.099980
vn -0.000000 0.001983 -0.099980
vn 0.049990 0.001983 -0.086586
vn 0.049990 0.001983 -0.086586
vn -0.099980 0.001983 -0.000000
vn -0.099980 0.001983 -0.000000
vn -0.086586 0.001983 -0.049990
vn -0.086586 0.001983 -0.049990
vn -0.049990 0.001983 -0.086586
vn -0.049990 0.001983 -0.086586
vn 0.000000 0.001983 -0.099980
vn 0.000000 0.001983 -0.099980
vn 0.049990 0.001983 -0.086586
vn 0.086586 0.001983 -0.049990
vn 0.086586 0.001983 -0.049990
vn 0.099980 0.001983 0.000000
vn 0.099980 0.001983 0.000000
vn 0.086586 0.001983 0.049990
vn 0.086586 0.001983 0.049990
vn 0.049990 0.001983 0.086586
vn 0.000000 0.001983 0.099980
vn 0.000000 0.001983 0.099980
vn -0.049990 0.001983 0.086586
vn -0.049990 0.001983 0.086586
vn -0.086586 0.001983 0.049990
vn -0.086586 0.001983 0.049990
vn -0.099980 0.001983 -0.000000
vn -0.086586 0.001983 -0.049990
vn -0.049990 0.001983 -0.086586
vn -0.000000 0.001983 -0.099980
vn 0.049990 0.001983 -0.086586
vn 0.086586 0.001983 -0.049990
vn 0.099980 0.001983 0.000000
vn 0.086586 0.001983 0.049990
vn 0.049990 0.001983 0.086586
vn 0.000000 0.001983 0.099980
vn -0.049990 0.001983 0.086586
vn -0.086586 0.001983 0.049990
vn -0.099980 0.001983 -0.000000
vn -0.086586 0.001983 -0.049990
vn -0.049990 0.001983 -0.086586
vn -0.000000 0.001983 -0.099980
vn 0.049990 0.001983 -0.086586
vn 0.086586 0.001983 -0.049990
vn 0.099980 0.001983 0.000000
vn 0.086586 0.001983 0.049990
vn 0.049990 0.001983 0.086586
vn 0.000000 0.001983 0.099980
vn -0.049990 0.001983 0.086586
vn -0.086586 0.001983 0.049990
vn 0.049990 0.001983 -0.086586
vn 0.049990 0.001983 0.086586
vn 0.000000 -0.100000 0.000000
vn 0.000000 -0.100000 0.000000
vn 0.000000 -0.100000 0.000000
vn 0.000000 -0.100000 0.000000
vn 0.000000 -0.100000 0.000000
vn 0.000000 -0.100000 0.000000
vn 0.000000 -0.100000 0.000000
vn 0.000000 -0.100000 0.000000
vn 0.000000 -0.100000 0.000000
vn 0.000000 -0.100000 0.000000
vn 0.000000 -0.100000 0.000000
vn 0.000000 -0.100000 0.000000
usemtl 191,191,191
f 2/1/1 18/2/2 1/3/3
f 1/3/3 18/2/2 25/4/4
f 1/3/3 25/4/4 12/5/5
f 12/5/5 25/4/4 58/6/6
f 12/5/5 58/6/6 11/7/7
f 11/7/7 58/6/6 54/8/8
f 11/7/7 54/8/8 10/9/9
f 10/9/9 54/8/8 50/10/10
f 10/9/9 50/10/10 9/11/11
f 9/11/11 50/10/10 46/12/12
f 9/11/11 46/12/12 8/13/13
f 8/13/13 46/12/12 42/14/14
f 8/13/13 42/14/14 7/15/15
f 7/15/15 42/14/14 14/16/16
f 7/17/15 14/18/16 6/19/17
f 6/19/17 14/18/16 38/20/18
f 6/19/17 38/20/18 5/21/19
f 5/21/19 38/20/18 34/22/20
f 5/21/19 34/22/20 4/23/21
f 4/23/21 34/22/20 30/24/22
f 4/23/21 30/24/22 3/25/23
f 3/25/23 30/24/22 26/26/24
f 3/25/23 26/26/24 2/1/1
f 2/1/1 26/26/24 18/2/2
f 17/27/25 13/28/26 41/29/27
f 41/29/27 13/30/28 37/31/29
f 37/31/29 13/32/30 33/33/31
f 33/33/31 13/34/32 29/35/33
f 21/36/34 13/37/35 22/38/36
f 22/38/36 13/39/37 61/40/38
f 61/40/38 13/41/39 57/42/40
f 53/43/41 13/44/42 49/45/43
f 49/45/43 13/46/44 45/47/45
f 45/47/45 13/48/46 17/49/25
f 14/18/16 15/50/47 38/20/18
f 38/20/18 15/50/47 39/51/48
f 38/20/18 39/51/48 34/22/20
f 34/22/20 39/51/48 35/52/49
f 34/22/20 35/52/49 30/24/22
f 30/24/22 35/52/49 31/53/50
f 30/24/22 31/53/50 26/26/24
f 26/26/24 31/53/50 27/54/51
f 26/26/24 27/54/51 18/2/2
f 18/2/2 27/54/51 19/55/52
f 18/2/2 19/55/52 25/4/4
f 25/4/4 19/55/52 24/56/53
f 25/4/4 24/56/53 58/6/6
f 58/6/6 24/56/53 59/57/54
f 58/6/6 59/57/54 54/8/8
f 54/8/8 59/57/54 55/58/55
f 54/8/8 55/58/55 50/10/10
f 50/10/10 55/58/55 51/59/56
f 50/10/10 51/59/56 46/12/12
f 46/12/12 51/59/56 47/60/57
f 46/12/12 47/60/57 42/14/14
f 42/14/14 47/60/57 43/61/58
f 42/14/14 43/61/58 14/16/16
f 14/16/16 43/61/58 15/62/47
f 15/50/47 16/63/59 39/51/48
f 39/51/48 16/63/59 40/64/60
f 39/51/48 40/64/60 35/52/49
f 35/52/49 40/64/60 36/65/61
f 35/52/49 36/65/61 31/53/50
f 31/53/50 36/65/61 32/66/62
f 31/53/50 32/66/62 27/54/51
f 27/54/51 32/66/62 28/67/63
f 27/54/51 28/67/63 19/55/52
f 19/55/52 28/67/63 20/68/64
f 19/55/52 20/68/64 24/56/53
f 24/56/53 20/68/64 23/69/65
f 24/56/53 23/69/65 59/57/54
f 59/57/54 23/69/65 60/70/66
f 59/57/54 60/70/66 55/58/55
f 55/58/55 60/70/66 56/71/67
f 55/58/55 56/71/67 51/59/56
f 51/59/56 56/71/67 52/72/68
f 51/59/56 52/72/68 47/60/57
f 47/60/57 52/72/68 48/73/69
f 47/60/57 48/73/69 43/61/58
f 43/61/58 48/73/69 44/74/70
f 43/61/58 44/74/70 15/62/47
f 15/62/47 44/74/70 16/75/59
f 16/63/59 17/27/25 40/64/60
f 40/64/60 17/27/25 41/29/27
f 40/64/60 41/29/27 36/65/61
f 36/65/61 41/29/27 37/31/29
f 36/65/61 37/31/29 32/66/62
f 32/66/62 37/31/29 33/33/31
f 32/66/62 33/33/31 28/67/63
f 28/67/63 33/33/31 29/35/33
f 28/67/63 29/35/33 20/68/64
f 20/68/64 29/35/33 21/36/34
f 20/68/64 21/36/34 23/69/65
f 23/69/65 21/36/34 22/38/36
f 23/69/65 22/38/36 60/70/66
f 60/70/66 22/38/36 61/40/38
f 60/70/66 61/40/38 56/71/67
f 56/71/67 61/40/38 57/42/40
f 56/71/67 57/42/40 52/72/68
f 52/72/68 57/42/40 53/43/41
f 52/72/68 53/43/41 48/73/69
f 48/73/69 53/43/41 49/45/43
f 48/73/69 49/45/43 44/74/70
f 44/74/70 49/45/43 45/47/45
f 44/74/70 45/47/45 16/75/59
f 16/75/59 45/47/45 17/49/25
f 29/35/33 13/76/71 21/36/34
f 57/42/40 13/77/72 53/43/41
f 1/78/73 12/79/74 2/80/75
f 2/80/75 12/79/74 3/81/76
f 3/81/76 12/79/74 11/82/77
f 3/81/76 11/82/77 4/83/78
f 4/83/78 11/82/77 10/84/79
f 4/83/78 10/84/79 5/85/80
f 5/85/80 10/84/79 9/86/81
f 5/85/80 9/86/81 6/87/82
f 6/87/82 9/86/81 8/88/83
f 6/87/82 8/88/83 7/89/84

# 61 vertices
# 89 texture params
# 84 normals
# 118 facets

# 1 groups
