# file generated by UVMapper
# NumVerts/NumTVerts/NumVNormals/NumFacets   8/16/24/12
# NumGroups/NumMaterials/NumRegions   1/1/0
# x/y/color/ppu   2048/1536/0/50.00000000

v  50.00000000 -50.00000000 -50.00000000
v -50.00000000 -50.00000000 -50.00000000
v -50.00000000  50.00000000 -50.00000000
v  50.00000000  50.00000000 -50.00000000
v -50.00000000 -50.00000000  50.00000000
v -50.00000000  50.00000000  50.00000000
v  50.00000000  50.00000000  50.00000000
v  50.00000000 -50.00000000  50.00000000

vt  1.00000000  0.33333334
vt  1.00000000  0.66666669
vt  0.25000000  0.66666669
vt  0.00000000  0.33333334
vt  0.00000000  0.66666669
vt  0.25000000  0.66666663
vt  0.50000000  0.66666663
vt  0.25000000  1.00000000
vt  0.50000000  1.00000000
vt  0.50000000  0.33333334
vt  0.75000000  0.66666669
vt  0.75000000  0.33333334
vt  0.50000000  0.00000000
vt  0.25000000  0.00000000
vt  0.25000000  0.33333334
vt  0.50000000  0.66666669

vn  0.00000000  0.00000000 -0.10000000
vn  0.00000000  0.00000000 -0.10000000
vn  0.00000000  0.00000000 -0.10000000
vn  0.00000000  0.00000000 -0.10000000
vn -0.10000000 -0.00000000  0.00000000
vn -0.10000000 -0.00000000  0.00000000
vn -0.10000000 -0.00000000  0.00000000
vn -0.10000000 -0.00000000  0.00000000
vn -0.00000000  0.10000000  0.00000000
vn -0.00000000  0.10000000  0.00000000
vn -0.00000000  0.10000000  0.00000000
vn -0.00000000  0.10000000  0.00000000
vn  0.10000000  0.00000000  0.00000000
vn  0.10000000  0.00000000  0.00000000
vn  0.10000000  0.00000000  0.00000000
vn  0.10000000  0.00000000  0.00000000
vn -0.00000000 -0.10000000  0.00000000
vn -0.00000000 -0.10000000  0.00000000
vn -0.00000000 -0.10000000  0.00000000
vn -0.00000000 -0.10000000  0.00000000
vn  0.00000000  0.00000000  0.10000000
vn  0.00000000  0.00000000  0.10000000
vn  0.00000000  0.00000000  0.10000000
vn  0.00000000  0.00000000  0.10000000

g Solid1
usemtl 191,191,191
f 1/12/1 2/1/2 4/11/3
f 4/11/3 2/1/2 3/2/4
f 5/15/5 6/3/6 2/4/7
f 2/4/7 6/3/6 3/5/8
f 6/6/9 7/7/10 3/8/11
f 3/8/11 7/7/10 4/9/12
f 7/16/13 8/10/14 4/11/15
f 4/11/15 8/10/14 1/12/16
f 8/10/17 5/15/18 1/13/19
f 1/13/19 5/15/18 2/14/20
f 5/15/21 8/10/22 6/3/23
f 6/3/23 8/10/22 7/16/24
